<?xml version="1.0" encoding="UTF-8" standalone="no"?>
<!-- Created with Inkscape (http://www.inkscape.org/) -->
<!DOCTYPE svg PUBLIC "-//W3C//DTD SVG 20010904//EN"
 "http://www.w3.org/TR/2001/REC-SVG-20010904/DTD/svg10.dtd">
<svg
   xmlns:dc="http://purl.org/dc/elements/1.1/"
   xmlns:cc="http://creativecommons.org/ns#"
   xmlns:rdf="http://www.w3.org/1999/02/22-rdf-syntax-ns#"
   xmlns:svg="http://www.w3.org/2000/svg"
   xmlns="http://www.w3.org/2000/svg"
   xmlns:xlink="http://www.w3.org/1999/xlink"
   xmlns:sodipodi="http://sodipodi.sourceforge.net/DTD/sodipodi-0.dtd"
   xmlns:inkscape="http://www.inkscape.org/namespaces/inkscape"
   version="1.1"
   id="svg10"
   width="48"
   height="48"
   viewBox="0 0 1024 1024"
   sodipodi:docname="logo.svg"
   inkscape:version="0.92.4 (5da689c313, 2019-01-14)">
  <metadata
     id="metadata16">
    <rdf:RDF>
      <cc:Work
         rdf:about="">
        <dc:format>image/svg+xml</dc:format>
        <dc:type
           rdf:resource="http://purl.org/dc/dcmitype/StillImage" />
        <dc:title></dc:title>
      </cc:Work>
    </rdf:RDF>
  </metadata>
  <defs
     id="defs14" />
  <sodipodi:namedview
     pagecolor="#ffffff"
     bordercolor="#666666"
     borderopacity="1"
     objecttolerance="10"
     gridtolerance="10"
     guidetolerance="10"
     inkscape:pageopacity="0"
     inkscape:pageshadow="2"
     inkscape:window-width="3840"
     inkscape:window-height="2035"
     id="namedview12"
     showgrid="false"
     inkscape:zoom="1.6875"
     inkscape:cx="512"
     inkscape:cy="512"
     inkscape:window-x="-13"
     inkscape:window-y="-13"
     inkscape:window-maximized="1"
     inkscape:current-layer="svg10" /> 
  <path
     style="fill:#ffffff"
     d="M 230.99353,908.06926 C 224.14088,905.97494 219.75917,902.35933 216.36697,896 214.55373,892.60073 214.5,881.53445 214.5,511.5 c 0,-370.03445 0.0537,-381.10073 1.86697,-384.5 2.62293,-4.91719 5.49764,-7.85269 10.13303,-10.34732 l 4,-2.15268 202,-0.28385 c 151.56634,-0.21299 203.06361,0.007 206.26005,0.88277 5.27397,1.44429 12.74169,7.86221 14.1661,12.17465 0.74526,2.2563 23.7886,25.92804 76.63651,78.72643 43.12018,43.07978 76.50832,77.21763 77.75407,79.5 l 2.18327,4 V 591 c 0,292.42265 -0.0562,301.60538 -1.86697,305 -2.62293,4.91719 -5.49764,7.85269 -10.13303,10.34732 l -4,2.15268 -280,0.16765 c -154,0.0922 -281.12791,-0.17707 -282.50647,-0.59839 z M 765,591.06127 V 318.12255 l -4.25,-0.51511 c -2.3375,-0.28331 -13.925,-0.7699 -25.75,-1.08131 -79.43833,-2.09199 -109.80713,-3.41787 -113.47249,-4.95414 -4.5784,-1.91894 -9.36075,-6.34789 -11.82136,-10.94778 -2.20508,-4.1222 -2.20629,-4.1577 -2.48898,-72.87421 L 606.93435,159 H 432.96717 259 V 511.5 864 H 512 765 Z M 478.45042,819.5934 c -3.97596,-1.73182 -8.10021,-6.70022 -8.98118,-10.81945 C 468.52322,804.3505 467.25701,803 464.05569,803 452.29982,803 441,791.0869 441,778.693 c 0,-1.96623 -0.49686,-3.88204 -1.10413,-4.25735 -2.18902,-1.35289 -4.85238,-9.03597 -4.87391,-14.05992 -0.0121,-2.81835 0.63218,-6.97831 1.43168,-9.24434 1.3316,-3.77416 1.29147,-4.47736 -0.47803,-8.37573 -2.30823,-5.08522 -2.5331,-12.92411 -0.53334,-18.59203 1.2853,-3.64293 1.26499,-4.44316 -0.18657,-7.35288 -2.69797,-5.40822 -2.81521,-13.0112 -0.30672,-19.89099 1.46303,-4.01249 1.87738,-6.43443 1.23645,-7.22729 -0.53017,-0.65586 -3.18506,-6.66013 -5.89975,-13.34283 -8.09368,-19.92402 -13.81864,-28.07628 -38.62412,-55.00018 -29.99071,-32.55194 -42.64568,-63.25674 -42.65754,-103.50009 -0.0122,-41.38534 16.50755,-80.14497 46.23148,-108.47111 19.74877,-18.82007 42.10953,-30.49384 70.07609,-36.58428 13.95422,-3.0389 51.1979,-3.30853 65.15213,-0.47169 30.6049,6.22186 53.20909,18.22572 74.59868,39.61531 17.52853,17.52853 28.23423,34.78042 36.0041,58.01943 12.97251,38.79964 10.0951,79.59101 -8.11504,115.0424 -6.89045,13.41431 -13.4494,22.08851 -31.38039,41.50057 -19.76886,21.40174 -26.55334,31.11729 -32.64729,46.75178 -1.12509,2.88652 -3.42727,8.26932 -5.11594,11.96177 l -3.07032,6.71355 1.88124,3.78645 c 2.47129,4.97407 2.57925,16.43053 0.19841,21.05544 -1.54607,3.00334 -1.55587,3.64161 -0.12055,7.85405 1.85957,5.45753 1.33327,14.48469 -1.12121,19.23112 -1.49624,2.89342 -1.50606,3.5837 -0.10953,7.6971 0.84377,2.48525 1.52424,6.64041 1.51216,9.23369 -0.0218,4.68113 -2.75727,12.34254 -4.87391,13.6507 -0.60727,0.37531 -1.10853,2.56833 -1.1139,4.87337 C 556.96303,790.97795 545.17298,803 533.75643,803 c -3.01607,0 -4.29243,1.41028 -5.22567,5.77395 -0.90391,4.22651 -5.05873,9.13088 -9.20195,10.86202 -4.50819,1.88365 -36.5327,1.8503 -40.87839,-0.0426 z m 2.47486,-187.92526 c 11.2949,-7.47461 12.34182,-24.50808 2.39201,-38.91814 L 480.728,589 l 2.58973,-3.75 c 1.42435,-2.0625 3.31961,-5.50455 4.21168,-7.64901 1.89477,-4.55484 2.15969,-14.79705 0.49393,-19.09656 -4.30263,-11.1056 -15.45987,-16.15439 -23.88662,-10.80899 -2.1751,1.37975 -2.74324,1.29231 -7.13533,-1.09816 -6.28648,-3.42154 -9.42649,-3.32602 -13.15259,0.40008 -2.64245,2.64244 -2.96575,3.59288 -2.73042,8.02682 0.25321,4.77061 0.0824,5.15486 -3.31879,7.46603 -4.60295,3.12779 -8.26505,10.43251 -7.39958,14.75984 0.92568,4.62838 3.13977,7.47451 7.57478,9.73709 5.38682,2.74815 6.68786,2.54646 7.98013,-1.23714 1.41093,-4.13103 3.77246,-6.94665 8.53966,-10.18176 4.32588,-2.93562 7.02129,-3.27226 7.89843,-0.98645 1.20043,3.12825 0.54607,4.40864 -3.24026,6.34028 -9.93081,5.06632 -10.63199,15.96517 -1.5419,23.96659 3.77881,3.32624 4.37072,4.33659 3.82182,6.52357 C 461.05048,612.93501 460.07878,614 459.07159,614 455.02151,614 445,602.41203 445,597.72889 c 0,-0.78934 -2.14883,-1.90152 -5.16981,-2.67577 -16.70713,-4.28191 -21.86793,-25.42913 -8.87404,-36.36277 2.28258,-1.92066 3.04385,-3.40377 3.04385,-5.93001 0,-2.0252 1.1965,-5.25546 3,-8.09929 1.65,-2.60178 3,-5.23784 3,-5.85792 0,-2.74188 -5.18187,-9.66155 -8.36702,-11.173 -4.24149,-2.01272 -13.68851,-2.06273 -19.13298,-0.10129 -5.36355,1.93228 -5.60352,1.87363 -4.47525,-1.09394 1.4404,-3.78853 1.18543,-10.12778 -0.54168,-13.46763 C 405.50338,509.13897 401.21157,507 395.50982,507 c -15.06681,0 -25.08149,17.41135 -21.57997,37.51857 2.16179,12.41393 8.03713,21.0532 17.88864,26.304 l 5.88893,3.13877 -0.75913,4.80225 c -1.36206,8.61636 1.28817,16.73325 7.04523,21.5775 3.55693,2.99297 7.85113,4.00103 14.94916,3.50933 l 5.05856,-0.35042 -6.2e-4,5.28212 c -0.002,14.31931 9.76588,22.30905 22.99938,18.81319 5.37159,-1.419 5.55837,-1.39759 8,0.91693 7.23948,6.86261 18.29114,8.20794 25.92528,3.1559 z M 536,632.91909 c 2.475,-1.12035 5.625,-3.10086 7,-4.40114 2.45006,-2.31693 2.61424,-2.33479 8.21868,-0.89407 13.29015,3.41645 22.75873,-4.74202 22.77512,-19.62388 l 0.005,-4.5 5.05856,0.35042 c 7.36387,0.51012 11.54344,-0.56098 15.39915,-3.94634 4.8747,-4.28005 6.8662,-10.18785 6.37352,-18.9071 l -0.40164,-7.108 5.93595,-3.16383 c 11.58176,-6.17302 17.89095,-17.80933 18.01461,-33.22515 0.15007,-18.70818 -8.42942,-30.5 -22.19119,-30.5 -10.01881,0 -15.35385,7.06861 -12.79125,16.94767 0.72081,2.77878 1.03898,5.04555 0.70704,5.03727 -0.33193,-0.008 -2.40351,-0.66353 -4.60351,-1.4561 -2.2,-0.79258 -6.93304,-1.46081 -10.51787,-1.48495 -7.9857,-0.0538 -12.62906,2.62913 -15.47565,8.94174 -1.64439,3.64661 -1.70734,4.45553 -0.49387,6.34682 3.2034,4.99277 4.98739,9.26497 4.98739,11.94355 0,1.9256 0.94994,3.65244 2.92209,5.3119 6.29137,5.29384 8.988,16.91372 5.73078,24.69422 -2.07479,4.95605 -8.62092,10.26857 -14.51409,11.77895 -2.99885,0.76858 -5.13878,1.87954 -5.13878,2.66782 0,2.82854 -4.09732,9.19856 -8.14551,12.66366 -4.94267,4.23075 -7.56657,4.60279 -8.42208,1.19416 -0.49306,-1.96451 0.31634,-3.31273 4.35255,-7.25 6.16336,-6.01229 7.25014,-10.20826 4.34502,-16.77577 -1.44383,-3.26403 -3.03944,-4.98426 -6.04575,-6.51797 -4.04262,-2.06239 -4.97637,-4.08639 -3.18774,-6.90974 2.26244,-3.57122 13.75141,4.68969 16.16956,11.62639 1.31606,3.77525 2.58237,3.97055 7.95916,1.22752 5.11713,-2.61057 7.30812,-6.07515 7.30812,-11.5562 0,-4.93192 -3.21181,-10.39927 -7.92563,-13.49149 -2.43934,-1.60018 -2.75635,-2.43629 -2.82753,-7.45774 -0.0695,-4.90567 -0.45217,-5.97543 -2.88593,-8.0686 -3.59648,-3.09316 -6.75838,-3.04729 -12.69563,0.18417 -4.37224,2.37966 -4.97006,2.47341 -7.13533,1.11896 -6.07935,-3.80283 -13.50168,-2.79556 -18.52839,2.51444 -8.4971,8.97597 -9.15196,21.0481 -1.80374,33.25103 l 3.43588,5.70585 -3.024,4.39524 c -4.244,6.16845 -6.11457,11.94166 -6.12932,18.9172 -0.0207,9.78348 3.79828,16.61399 11.39001,20.37181 5.37566,2.66089 10.98753,2.67669 16.79628,0.0473 z M 483.76235,535 c 1.15923,-3.00207 1.7167,-7.16298 1.6747,-12.5 -0.0714,-9.06911 -2.68305,-15.92258 -8.78377,-23.04989 l -3.40275,-3.97535 3.39309,-3.92522 c 8.90309,-10.29936 11.12521,-22.82186 6.02616,-33.95966 -1.43396,-3.13217 -3.51467,-6.84853 -4.62382,-8.25859 l -2.01664,-2.56373 2.06843,-2.90483 c 3.60645,-5.0648 5.90266,-13.27653 5.89667,-21.08775 -0.007,-9.05261 -1.16164,-13.30891 -5.27135,-19.43047 -8.77454,-13.07 -23.35601,-12.29994 -36.21768,1.91267 -3.02797,3.346 -5.50539,6.38148 -5.50539,6.74551 0,0.36402 -2.44786,0.45886 -5.4397,0.21075 -4.39297,-0.3643 -6.13076,-0.024 -9.03108,1.7685 -7.06714,4.36774 -9.37964,13.56416 -5.45131,21.679 5.27909,10.90515 22.41975,17.75291 32.01597,12.79051 C 454.74568,445.5288 458.46972,436 453.96016,436 c -2.71501,0 -8.98488,-3.26165 -11.39709,-5.92888 -1.91846,-2.12128 -1.91693,-2.1617 0.15998,-4.23861 l 2.0969,-2.0969 3.27463,2.33174 c 2.23701,1.59289 5.10453,2.4641 9.04967,2.74947 5.3612,0.38779 5.99293,0.19985 8.8154,-2.62262 1.67219,-1.6722 3.04035,-3.80622 3.04035,-4.74228 0,-1.37877 0.60324,-1.58127 3.17708,-1.0665 1.7474,0.34948 3.36349,0.82181 3.59131,1.04964 1.67624,1.67623 -5.09353,10.64748 -9.91683,13.1417 -1.98827,1.02817 -2.85156,2.23575 -2.85156,3.98876 0,8.41885 -11.02638,18.40088 -20.35699,18.4289 -1.37444,0.004 -1.67055,0.46032 -1.13952,1.75558 1.20659,2.94305 1.77785,9.93678 1.10474,13.5248 -0.35079,1.86986 -2.20615,5.23201 -4.12302,7.47144 -2.72891,3.18812 -3.48521,4.94532 -3.48521,8.09762 0,2.21427 -0.43004,5.15703 -0.95564,6.53947 -2.13591,5.61787 9.8004,10.21541 15.73313,6.05997 1.68767,-1.18209 2.2278,-2.56581 2.24447,-5.75 0.0271,-5.17448 2.76241,-11.28899 6.70597,-14.99055 l 2.98014,-2.79724 1.64596,2.51206 c 1.99708,3.04792 2.06905,4.2061 0.30349,4.88361 -2.13395,0.81887 -4.65752,7.12564 -4.65752,11.63979 0,3.91707 3.19784,12.0223 4.77032,12.09083 0.40133,0.0175 1.50515,0.62081 2.45295,1.3407 1.47786,1.1225 1.55344,1.75879 0.53076,4.46819 -0.65588,1.73762 -1.63088,3.15931 -2.16667,3.15931 -0.53579,0 -3.30657,-2.40807 -6.15728,-5.35127 -4.85894,-5.01658 -5.33156,-5.26897 -7.5566,-4.03544 -5.31726,2.94784 -16.86335,0.71862 -20.79122,-4.01418 -1.14284,-1.37703 -1.63203,-1.28156 -4.45121,0.86873 -1.742,1.32869 -5.19964,2.95937 -7.68366,3.62374 l -4.51639,1.20795 1.48835,4.85024 1.48834,4.85023 6.54615,0.022 c 4.15578,0.0139 8.00992,0.68694 10.55474,1.84302 4.55694,2.07018 10.07837,7.90221 12.12994,12.81229 1.15718,2.76954 1.92717,3.33213 4.6249,3.37917 1.78012,0.0311 4.81158,0.59358 6.73658,1.25008 1.925,0.6565 8.34306,1.1936 14.26235,1.19356 l 10.76234,-8e-5 1.73766,-4.5 z m 57.55275,3.13518 C 542.8634,537.51083 545.66987,537 547.55168,537 c 3.00898,0 3.61005,-0.45211 4.98558,-3.75 3.75168,-8.99482 12.00398,-14.19295 22.58774,-14.22804 6.40785,-0.0212 6.6447,-0.1121 7.22593,-2.77196 0.33051,-1.5125 0.87141,-3.69432 1.202,-4.84848 0.51792,-1.80815 -0.0387,-2.2776 -4.02306,-3.39316 -2.54328,-0.71207 -5.78264,-2.20595 -7.19857,-3.31972 -2.04652,-1.60979 -2.90836,-1.78764 -4.20287,-0.86732 -7.26868,5.16765 -15.79562,6.67592 -21.1102,3.73402 -2.34216,-1.2965 -2.67128,-1.15239 -5.85037,2.56166 -1.85273,2.16449 -4.63272,4.58915 -6.17776,5.38812 -2.73363,1.41361 -2.83787,1.37032 -3.87681,-1.60998 -0.97366,-2.79305 -0.8024,-3.28586 1.94545,-5.59802 4.07956,-3.43272 5.94199,-7.35283 5.93752,-12.49746 -0.003,-3.93949 -0.95835,-6.14946 -5.16302,-11.94867 -0.95573,-1.31817 -0.84036,-2.19118 0.57505,-4.35137 l 1.77066,-2.70236 3.03662,2.85137 c 3.99625,3.75245 6.73524,9.84597 6.76247,15.04467 0.0167,3.18419 0.5568,4.56791 2.24447,5.75 5.93273,4.15544 17.86904,-0.4421 15.73313,-6.05997 C 563.43004,493.00089 563,489.95254 563,487.60921 c 0,-3.31886 -0.58106,-4.79643 -2.62888,-6.6849 -4.94018,-4.55576 -6.7065,-12.78131 -4.44093,-20.68091 0.88729,-3.09378 0.80408,-3.2434 -1.80365,-3.2434 -4.4803,0 -12.63601,-4.68467 -15.59884,-8.96003 -1.48412,-2.14159 -2.947,-5.7472 -3.25084,-8.01246 -0.42541,-3.17172 -1.17635,-4.4413 -3.2662,-5.522 -3.26965,-1.6908 -8.57358,-7.55304 -9.51372,-10.51516 -0.80987,-2.55168 -0.74243,-2.63965 2.68276,-3.49932 2.2884,-0.57435 2.90616,-0.22568 4.26876,2.4093 0.87624,1.69446 2.71417,3.81535 4.0843,4.71309 3.56835,2.33808 12.0594,1.48732 16.27697,-1.63087 l 3.22955,-2.38771 2.16729,2.16729 c 2.14774,2.14774 2.14982,2.18659 0.23036,4.30899 -2.39042,2.64313 -8.67391,5.92888 -11.33807,5.92888 -2.94576,0 -3.16154,1.14413 -1.08886,5.7736 2.52099,5.6308 6.93255,8.22063 13.99,8.21289 13.16997,-0.0144 26,-11.03941 26,-22.34205 0,-5.13344 -3.23906,-11.01104 -7.52922,-13.6625 -2.90032,-1.7925 -4.63811,-2.1328 -9.03108,-1.7685 -2.99184,0.24811 -5.4397,0.14166 -5.4397,-0.23654 0,-1.84723 -12.55282,-14.0661 -16.32804,-15.89365 -10.93929,-5.29563 -22.6104,-0.16842 -28.25054,12.41066 -4.526,10.09424 -3.98828,20.99541 1.57334,31.89655 1.65288,3.23976 3.00524,6.2641 3.00524,6.72077 0,0.45666 -1.34165,2.75595 -2.98145,5.10953 -8.33191,11.9587 -7.05086,27.40479 3.25591,39.25762 l 3.45945,3.97838 -3.80243,4.52162 c -6.06242,7.20908 -8.29271,13.21213 -8.36734,22.52162 -0.0428,5.33814 0.51387,9.4973 1.67301,12.5 l 1.73715,4.5 11.26285,-0.11482 c 6.19457,-0.0631 12.52964,-0.62565 14.07795,-1.25 z M 388.03435,501.3307 c 5.08537,-1.41386 6.97527,-1.49038 12.3502,-0.5 3.49033,0.64311 8.28958,1.1693 10.66502,1.1693 5.11925,0 12.14404,-3.15939 14.94654,-6.72218 2.40054,-3.0518 2.69002,-9.98842 0.53569,-12.83669 C 424.54807,479.8184 424.64118,479 426.92327,479 c 5.61869,0 10.97997,-9.36378 9.10482,-15.90207 -1.30987,-4.56723 -2.57731,-5.84159 -9.06924,-9.1187 -7.80069,-3.93778 -11.59568,-7.36602 -15.17531,-13.70879 -2.74741,-4.86814 -3.32328,-5.35551 -5.67075,-4.79928 -10.52002,2.49271 -14.91572,16.0306 -8.7734,27.02039 1.46333,2.6182 2.66061,4.92868 2.66061,5.1344 0,0.20573 -1.03665,0.37405 -2.30366,0.37405 -3.81864,0 -12.35373,4.86203 -15.28771,8.70868 -5.5306,7.25099 -6.71116,14.82502 -3.43556,22.04132 1.06103,2.3375 2.18294,4.25 2.49314,4.25 0.31019,0 3.26586,-0.75119 6.56814,-1.6693 z M 619.02693,498.75 c 1.06103,-2.3375 1.93903,-5.64535 1.95111,-7.35078 0.0718,-10.13332 -9.38934,-21.48192 -19.21954,-23.05383 -2.06717,-0.33055 -3.7585,-0.71181 -3.7585,-0.84725 0,-0.13543 1.19728,-2.38839 2.66061,-5.00659 3.44371,-6.16146 3.76785,-14.36092 0.7706,-19.49292 -1.89465,-3.24408 -8.42227,-7.94423 -11.08575,-7.98218 -0.635,-0.009 -2.49679,2.34605 -4.13732,5.23355 -3.78079,6.6546 -6.08469,8.76009 -14.72546,13.45728 -8.22994,4.47387 -11.15977,8.86997 -10.00694,15.01507 C 562.27347,472.97464 567.79852,479 570.9,479 c 2.45644,0 2.58447,0.77538 0.5682,3.44113 -0.80751,1.06762 -1.4682,3.93949 -1.4682,6.38192 0,3.77566 0.52168,4.93281 3.48304,7.72572 1.91567,1.80671 5.11335,3.82298 7.10597,4.48061 3.43099,1.13232 5.24243,1.08164 20.41099,-0.57108 3.75152,-0.40875 6.77162,-0.1224 9.5,0.90076 5.88319,2.20622 6.41507,2.04348 8.52693,-2.60906 z M 691.96077,232.46076 C 670.81271,211.30734 653.16457,194 652.7427,194 c -0.42187,0 -0.64907,16.7625 -0.50487,37.25 L 652.5,268.5 667,269.23633 c 19.89186,1.01013 62.39755,2.34954 62.9559,1.98382 0.25075,-0.16424 -16.84706,-17.60597 -37.99513,-38.75939 z"
     id="path20"
     inkscape:connector-curvature="0" />
</svg>
